<svg xmlns="http://www.w3.org/2000/svg" viewBox="0 0 550.59 723.08"><defs><style>.cls-1{fill:#fff;}</style></defs><g id="Layer_2" data-name="Layer 2"><g id="Layer_1-2" data-name="Layer 1"><path class="cls-1" d="M320.09,483l29.54,13.23h.05a30.44,30.44,0,0,0,12.37,2.64,30.77,30.77,0,0,0,11.82-2.38,31.25,31.25,0,0,0,17.21-17.49c.06-.15.09-.3.15-.45L402.65,449l32.45.72h.72a30.62,30.62,0,0,0,21.8-9.11,31.35,31.35,0,0,0,9.11-22.78v0L466,385.63l30-11.57h0a31.3,31.3,0,0,0,17.28-41.67h0l-13-29.32,23.2-22.26,0-.05a31.38,31.38,0,0,0,9.55-22.56,30.58,30.58,0,0,0-9.56-22.27l0,0L500.29,213.6l13-29.59h0v0l0,0a31.56,31.56,0,0,0,.22-24.68A30.59,30.59,0,0,0,496,142.34h0l-30-11.58.71-32.15v0a31.35,31.35,0,0,0-9.11-22.78,30.65,30.65,0,0,0-22.56-9.11H435l-32.33,1L391.09,37.41h0v0a31.31,31.31,0,0,0-17.2-17.55,30.44,30.44,0,0,0-24.1.52h0l-29.6,13L297.87,10h0A31.5,31.5,0,0,0,275.21,0a30.79,30.79,0,0,0-22.36,9.94h0L230.59,33.39,201,20.36h0a30.42,30.42,0,0,0-41.3,17v0l-11.55,30.2-32.33-1h-.08A31.44,31.44,0,0,0,92.8,75.78,30.81,30.81,0,0,0,84,98.56v0l.71,32.15-30,11.58h0a30.94,30.94,0,0,0-17.82,16.9,31.58,31.58,0,0,0,.52,24.69s0,0,0,0l0,0h0l13,29.6L27.2,235.88s0,0,0,0a30.76,30.76,0,0,0-9.85,22.27,31.5,31.5,0,0,0,9.85,22.56l0,.05,23.21,22.26-13,29.31h0a30.78,30.78,0,0,0-.54,24.48,31.54,31.54,0,0,0,17.82,17.19h0l30,11.57L84,417.79v0A30.78,30.78,0,0,0,92.8,440.6a31.37,31.37,0,0,0,22.1,9.12h.71l32.46-.72,11.57,30v0a30.6,30.6,0,0,0,16.88,17.51,31.32,31.32,0,0,0,12,2.39A30.77,30.77,0,0,0,201,496.29h.05L230.62,483l22.22,23.39h0a30.61,30.61,0,0,0,22.36,9.64,31.38,31.38,0,0,0,22.65-9.64h0ZM190.24,463.87,177.1,429.8c0-.09-.08-.17-.12-.26-.12-.3-.26-.6-.4-.9s-.2-.43-.31-.64-.3-.55-.47-.82-.25-.43-.39-.64-.33-.47-.51-.71-.32-.44-.49-.65-.34-.4-.52-.6-.4-.44-.61-.65l-.53-.5c-.24-.22-.47-.43-.72-.64l-.55-.42c-.27-.2-.54-.4-.82-.58l-.22-.17c-2.09-1.34-3.92-2.56-5.62-3.74l-.21-.13c-.28-.19-.57-.36-.87-.54s-.39-.24-.59-.34-.55-.28-.83-.41l-.72-.33-.73-.27c-.29-.1-.58-.21-.87-.29s-.43-.12-.64-.17-.67-.17-1-.24l-.6-.09c-.35-.06-.71-.11-1.07-.14l-.62,0c-.35,0-.7,0-1,0h-.27l-36.72.8.82-36.7c0-.1,0-.18,0-.28,0-.32,0-.65,0-1s0-.47,0-.71-.08-.62-.12-.93l-.12-.74c-.06-.29-.13-.57-.2-.85s-.13-.53-.21-.79-.17-.5-.25-.75-.2-.56-.31-.83-.2-.45-.31-.67-.27-.58-.42-.86l-.35-.61c-.16-.28-.34-.57-.52-.84,0-.08-.09-.16-.14-.23-.84-1.2-1.67-2.52-2.56-3.91l-1.09-1.72a16.91,16.91,0,0,0-9.24-7L69.7,343.41l14.79-33.35a2,2,0,0,0,.1-.26c.13-.31.25-.62.36-.94s.16-.43.23-.65.17-.62.25-.93.12-.47.17-.71.1-.59.15-.88.08-.52.11-.79,0-.54,0-.82,0-.57,0-.86,0-.51,0-.76,0-.62-.06-.93-.06-.48-.09-.71-.09-.65-.16-1c0-.09,0-.19,0-.29-.5-2.3-1-4.56-1.34-6.7,0-.09,0-.17,0-.25-.07-.32-.15-.64-.23-1s-.11-.45-.18-.68-.2-.59-.31-.89-.16-.47-.26-.7-.23-.52-.36-.78-.23-.5-.36-.74-.26-.45-.39-.67-.31-.52-.48-.78-.27-.37-.41-.56-.4-.54-.61-.79-.29-.33-.43-.49-.47-.52-.72-.76l-.16-.18L52.9,258.34l26.37-25.29,0-.06a15.75,15.75,0,0,0,1.12-1.19,1.58,1.58,0,0,0,.12-.15c.3-.36.59-.73.85-1.11.11-.15.2-.31.31-.46s.37-.58.54-.87.2-.39.31-.58.27-.54.4-.82.19-.43.28-.65l.3-.81c.08-.23.16-.47.23-.71s.14-.53.21-.79.12-.51.17-.76a2.61,2.61,0,0,0,.06-.27c.39-2.14.84-4.4,1.34-6.71,0-.09,0-.17,0-.26.06-.32.11-.65.16-1s.07-.47.09-.71,0-.62.06-.94,0-.5,0-.75,0-.57,0-.86,0-.55,0-.82-.07-.52-.11-.78-.08-.59-.14-.89-.11-.47-.17-.7-.16-.63-.25-.93-.15-.44-.23-.66-.22-.63-.35-.94c0-.08-.06-.16-.1-.24L69.7,173l34.16-13.18c.51-.19,1-.42,1.49-.66l.22-.11c.45-.23.88-.48,1.31-.75l.23-.15c.38-.25.75-.51,1.11-.79l.15-.12c.38-.3.74-.62,1.09-.95l.27-.26c.3-.3.6-.61.88-.94l.13-.15c.3-.35.58-.72.85-1.1.09-.12.17-.25.25-.37s.16-.21.23-.32c1.32-2,2.54-3.89,3.75-5.63l.14-.22c.18-.28.36-.56.52-.85s.24-.4.35-.6.29-.57.42-.86.21-.45.31-.67.21-.55.31-.83.18-.5.25-.76.14-.52.21-.78.14-.57.2-.85l.12-.74c0-.31.09-.62.12-.94s0-.47,0-.71,0-.65,0-1c0-.09,0-.18,0-.27L118,100.75l36.6,1.07h.51c.51,0,1,0,1.54-.08l.4,0c.38,0,.76-.1,1.14-.17l.42-.08c.44-.09.88-.2,1.31-.33l.15,0a14.43,14.43,0,0,0,1.39-.5l.44-.19c.31-.13.6-.27.9-.43s.35-.18.52-.27l.79-.47.49-.31.19-.13c1.7-1.17,3.53-2.4,5.62-3.74l.11-.08c.44-.29.87-.59,1.28-.92l.09-.07c.37-.3.72-.61,1.07-.94l.32-.32c.26-.27.52-.54.76-.83l.29-.33a14.69,14.69,0,0,0,.9-1.18l.06-.1c.26-.38.5-.78.73-1.2.09-.15.17-.32.26-.48s.29-.57.42-.86l.24-.56c0-.12.1-.23.15-.35l13-34.08,33.37,14.68h0l.13.06.2.07c.43.18.86.35,1.3.49.16.06.32.1.48.15.36.11.73.21,1.1.29.18,0,.36.09.54.12.37.07.74.13,1.12.17l.49.07c.51,0,1,.07,1.52.08h.09c.54,0,1.08,0,1.62-.09l.34,0a15.66,15.66,0,0,0,1.69-.27c2.36-.51,4.6-1,6.67-1.33l.14,0c.33-.06.66-.15,1-.23l.67-.17c.31-.09.6-.2.9-.31s.49-.16.72-.26.51-.23.76-.35.53-.24.79-.38l.65-.38c.27-.16.55-.32.81-.5s.38-.27.57-.41.55-.41.81-.62l.51-.46c.26-.23.52-.47.76-.72l.21-.2,25.23-26.56,25.22,26.56.21.2c.25.26.51.5.78.74s.32.3.49.44.55.42.83.63l.55.4c.27.18.55.35.83.51s.42.26.64.37.53.27.8.39.49.24.75.34.49.18.74.27.58.21.87.3.47.12.7.18.65.16,1,.22l.15,0c2,.36,4.16.79,6.65,1.33a16.06,16.06,0,0,0,1.69.27l.35,0c.53.05,1.07.09,1.62.09h.08c.51,0,1,0,1.52-.08l.49-.07c.38,0,.75-.1,1.13-.17l.53-.12c.37-.08.74-.18,1.1-.29.17,0,.33-.09.49-.15.43-.14.86-.3,1.28-.48l.22-.08.13-.06h0l33.37-14.68L373.6,86.83c0,.12.1.23.14.34l.24.57c.13.29.27.57.42.85l.26.49c.22.4.46.79.71,1.16a.41.41,0,0,0,.07.11,13.5,13.5,0,0,0,.91,1.2l.28.33c.25.29.51.57.77.84l.32.31a13.57,13.57,0,0,0,1.07.94l.08.07q.63.49,1.29.93l.11.08c2.05,1.32,3.9,2.55,5.64,3.76l.18.11.5.32c.26.16.52.32.78.46s.35.19.53.28.58.29.87.41l.47.21c.45.18.91.35,1.38.49l.12,0a12.52,12.52,0,0,0,1.34.34l.42.08c.38.07.76.13,1.14.17l.39,0c.52,0,1,.08,1.54.08h.52l36.59-1.07-.81,36.69c0,.09,0,.18,0,.27,0,.33,0,.66,0,1s0,.48.05.71.07.63.12.94.07.49.12.74.12.56.19.85.13.52.21.78.17.51.26.76.19.56.3.83l.31.67c.13.29.27.58.42.86s.23.4.35.6.34.57.52.85c.06.07.09.15.15.22,1.21,1.76,2.44,3.6,3.74,5.62l.23.33.25.37c.27.38.55.75.85,1.1l.14.15q.42.5.87.93l.27.27c.35.33.72.65,1.09.95l.15.12c.36.28.74.54,1.12.79l.22.15c.43.27.87.52,1.31.75l.22.11c.49.24,1,.47,1.49.66L481,173,466.2,206.66c0,.08-.06.17-.1.25-.12.3-.24.61-.35.92s-.16.45-.23.67-.17.61-.24.91-.13.49-.18.73-.1.57-.14.86-.08.54-.11.81,0,.52-.05.79,0,.59,0,.89,0,.48,0,.72,0,.65.06,1,.06.45.09.68.1.67.17,1a2.17,2.17,0,0,0,0,.25c.5,2.34,1,4.6,1.34,6.71l.06.27c.05.25.11.51.18.77s.13.52.2.78l.24.72c.09.27.19.53.3.8l.27.65c.13.28.27.55.41.82s.2.39.31.58.35.59.54.87.19.31.3.46c.27.39.56.76.86,1.13l.11.13a14.2,14.2,0,0,0,1.13,1.2l.05.05,26.36,25.29-26.36,25.28c-.07.07-.12.14-.19.2-.23.23-.45.47-.67.71s-.32.35-.47.54-.39.49-.57.74-.3.4-.44.61-.31.49-.46.74-.28.46-.41.7-.24.48-.35.72-.26.53-.37.8-.18.46-.26.69-.22.6-.31.9l-.18.68c-.08.32-.16.64-.22,1a2.27,2.27,0,0,0-.06.25c-.37,2-.82,4.29-1.34,6.69,0,.1,0,.2,0,.29-.07.32-.11.64-.16,1s-.07.47-.09.71-.05.62-.06.93,0,.51,0,.76,0,.57,0,.86,0,.55.05.82.07.53.11.79.09.59.15.88.11.48.17.71.16.62.25.93.15.44.23.66.23.62.36.93a2,2,0,0,0,.1.26L481,343.4l-34.19,13.2-.25.11c-.32.13-.63.27-.94.42l-.6.29c-.29.15-.57.32-.85.49l-.61.37-.74.53-.62.47c-.22.18-.42.36-.62.55l-.64.58-.51.55c-.22.23-.43.47-.63.71l-.43.56c-.2.26-.39.53-.58.81l-.16.23c-1.31,2-2.54,3.87-3.74,5.6,0,.08-.09.16-.14.23-.19.28-.36.56-.53.85s-.24.4-.35.6-.28.57-.42.86-.21.45-.3.67-.21.55-.31.83-.18.5-.26.76-.14.52-.2.78-.15.57-.2.85-.08.49-.12.74-.09.62-.12.94,0,.47-.05.7,0,.66,0,1c0,.09,0,.18,0,.28l.81,36.7-36.72-.8h-.27c-.33,0-.66,0-1,0l-.71,0q-.45,0-.9.12l-.8.12-.74.18a9.36,9.36,0,0,0-.91.24c-.2.05-.39.13-.58.19-.35.12-.69.24-1,.39l-.43.19c-.38.17-.75.35-1.12.55l-.34.19c-.38.23-.76.46-1.13.71l-.12.07c-1.66,1.16-3.5,2.38-5.62,3.75l-.23.16c-.27.18-.54.38-.8.58s-.38.28-.56.43-.48.41-.71.63-.37.33-.54.51-.4.42-.6.64-.36.4-.53.61-.33.42-.49.64-.35.47-.51.72-.26.42-.39.63-.32.55-.47.83-.21.41-.31.62-.28.61-.4.92l-.12.25-13.14,34.07-33.33-14.93a2.85,2.85,0,0,0-.31-.12c-.29-.13-.58-.24-.88-.35l-.71-.24c-.29-.09-.58-.17-.88-.24l-.75-.18c-.28-.06-.57-.1-.85-.15l-.81-.11c-.27,0-.54,0-.81-.06l-.87,0-.76,0q-.47,0-.93.06l-.72.09c-.32,0-.64.09-1,.16l-.31,0c-2.34.5-4.6,1-6.71,1.34l-.28.07c-.33.06-.65.14-1,.22l-.67.19c-.3.09-.6.2-.9.31s-.47.16-.7.26-.53.24-.79.37-.49.23-.73.36-.46.26-.69.4l-.75.47-.6.44c-.25.19-.51.38-.75.58l-.52.46c-.25.23-.5.46-.73.69l-.21.2-25.22,26.57L250.13,454.2l-.21-.2-.71-.68-.54-.47c-.24-.2-.49-.39-.74-.58s-.4-.3-.61-.44-.49-.31-.74-.46-.46-.29-.7-.42l-.72-.35c-.26-.13-.53-.26-.8-.37s-.46-.18-.69-.26-.6-.22-.91-.31l-.67-.19-1-.23-.27-.06c-2.12-.38-4.37-.83-6.71-1.34l-.31,0c-.32-.07-.64-.12-1-.16l-.71-.09q-.46,0-.93-.06l-.77,0-.86,0c-.27,0-.55,0-.82.06l-.79.11c-.3,0-.59.09-.88.15l-.72.17c-.31.08-.61.16-.91.26l-.68.23-.91.35-.3.12Z"/><path class="cls-1" d="M439.66,258.19c0-90.68-73.77-164.45-164.45-164.45S110.76,167.51,110.76,258.19s73.77,164.46,164.45,164.46S439.66,348.87,439.66,258.19Zm-294.9,0a130.45,130.45,0,0,1,260.9,0c0,71.93-58.52,130.46-130.45,130.46S144.76,330.12,144.76,258.19Z"/><path class="cls-1" d="M242.54,515a17,17,0,0,0-23.23,6.19L130.82,673.93l-14.27-43.59c0-.07-.06-.14-.08-.22a23.17,23.17,0,0,0-26.9-15.53l-.25,0-45,9.47,80.52-139.47a17,17,0,1,0-29.44-17L3.28,627.13v0A23.81,23.81,0,0,0,4.39,653a23.66,23.66,0,0,0,19.14,9.69,24.25,24.25,0,0,0,4.92-.51h0l58.66-12.33,18.63,56.88a1.34,1.34,0,0,0,.07.18A23.11,23.11,0,0,0,125.42,723a22.84,22.84,0,0,0,2.47.13,23.93,23.93,0,0,0,20.53-11.72l.16-.25v0h0l100.13-172.9A17,17,0,0,0,242.54,515Z"/><path class="cls-1" d="M547.43,627.13h0L456.07,468.9a17,17,0,1,0-29.44,17l79.79,138.2-45-9.46h0l-.2,0a23.18,23.18,0,0,0-26.95,15.52,1.43,1.43,0,0,1-.08.22l-14.27,43.59L331.41,521.14a17,17,0,0,0-29.43,17L402.13,711.11l.14.22a23.43,23.43,0,0,0,42.58-4.39c0-.08.06-.15.08-.23l18.63-56.88,58.66,12.33.6.1a23.78,23.78,0,0,0,4.42.42A23.09,23.09,0,0,0,546,653,23.83,23.83,0,0,0,547.43,627.13Z"/></g></g></svg>