
<svg xmlns="http://www.w3.org/2000/svg" width="17.5" height="17.5" viewBox="0 0 17.5 17.5">
  <g id="Group_58" data-name="Group 58" transform="translate(52.75 -934.25)">
    <path id="Path_810" data-name="Path 810" d="M8,3.25h8A4.755,4.755,0,0,1,20.75,8v8A4.755,4.755,0,0,1,16,20.75H8A4.755,4.755,0,0,1,3.25,16V8A4.755,4.755,0,0,1,8,3.25Zm8,16A3.254,3.254,0,0,0,19.25,16V8A3.254,3.254,0,0,0,16,4.75H8A3.254,3.254,0,0,0,4.75,8v8A3.254,3.254,0,0,0,8,19.25Z" transform="translate(-56 931)" fill="#fff"/>
    <path id="Path_811" data-name="Path 811" d="M12,15.75A3.75,3.75,0,1,1,15.75,12,3.754,3.754,0,0,1,12,15.75Zm0-6A2.25,2.25,0,1,0,14.25,12,2.253,2.253,0,0,0,12,9.75Z" transform="translate(-56 931)" fill="#fff"/>
    <path id="Path_812" data-name="Path 812" d="M16.5,8.26a.75.75,0,0,1-.75-.75V7.5a.75.75,0,0,1,1.5,0v.01A.75.75,0,0,1,16.5,8.26Z" transform="translate(-56 931)" fill="#fff"/>
  </g>
</svg>
