<svg xmlns="http://www.w3.org/2000/svg" viewBox="0 0 70.74 1736.93"><defs><style>.cls-1{fill:#081723;}</style></defs><g id="Layer_2" data-name="Layer 2"><g id="Layer_1-2" data-name="Layer 1"><path class="cls-1" d="M1.55,1622.31,69.2,1644v24.45l-36.15,10.92,36.15,11.5v24.45L1.55,1736.93v-23.48L40,1701.66,1.55,1689.19v-21l38.94-11.79L1.55,1644Z"/><path class="cls-1" d="M1.55,1550.61H69.2v22.8H44.26v21.07H69.2v22.81H1.55v-22.81h24v-21.07h-24Z"/><path class="cls-1" d="M57.41,1493.49v25.71l11.79,4.54v23.19L1.55,1517.36v-22.42l67.65-29.57V1489ZM41,1499.77l-17,6.57,17,6.58Z"/><path class="cls-1" d="M19.23,1450.39v19.81H1.55v-62.43H19.23v19.81h50v22.81Z"/><path class="cls-1" d="M1.55,1262.81l67.65,21.65v24.45l-36.15,10.92,36.15,11.5v24.45L1.55,1377.42v-23.48L40,1342.15,1.55,1329.68v-21l38.94-11.79L1.55,1284.46Z"/><path class="cls-1" d="M52,1201.54H69.2v56.24H1.55v-55h17.2v32.57h7.92v-28.61H43.1v28.61H52Z"/><path class="cls-1" d="M1.55,1163.75v-33.34a46.16,46.16,0,0,1,4.1-20A31.31,31.31,0,0,1,17.4,1097a33.13,33.13,0,0,1,18-4.78,33.14,33.14,0,0,1,18,4.78,31.29,31.29,0,0,1,11.74,13.43,46,46,0,0,1,4.11,20v33.34Zm49.86-32.37q0-7.35-4.2-11.74t-11.84-4.4q-7.63,0-11.84,4.4t-4.2,11.74v9.56H51.41Z"/><path class="cls-1" d="M66.2,1068.08a33.89,33.89,0,0,1-30.83,18.55,33.89,33.89,0,0,1-30.83-18.55,44.66,44.66,0,0,1,0-39.24,33.84,33.84,0,0,1,30.83-18.55,33.84,33.84,0,0,1,30.83,18.55,44.66,44.66,0,0,1,0,39.24Zm-16-27.3a14.85,14.85,0,0,0-5.9-5.46,18.67,18.67,0,0,0-8.94-2,18.72,18.72,0,0,0-8.94,2,14.82,14.82,0,0,0-5.89,5.46,15.22,15.22,0,0,0,0,15.36,14.82,14.82,0,0,0,5.89,5.46,18.72,18.72,0,0,0,8.94,2,18.67,18.67,0,0,0,8.94-2,14.85,14.85,0,0,0,5.9-5.46,15.28,15.28,0,0,0,0-15.36Z"/><path class="cls-1" d="M51.8,912.68l5.41-6.38L70.45,918l-6.18,7.16a40.91,40.91,0,0,1,6.47,22.61,38.71,38.71,0,0,1-2.56,14.45,24.58,24.58,0,0,1-7,10.1A15.33,15.33,0,0,1,51.12,976a19.14,19.14,0,0,1-11.06-3.19,28.43,28.43,0,0,1-8.46-9.95q-6.18,5.79-13,5.79a15.55,15.55,0,0,1-9.52-3A20,20,0,0,1,2.71,957,32.61,32.61,0,0,1,.39,944.28a30.87,30.87,0,0,1,2.07-11.74,17.68,17.68,0,0,1,6-7.88,15.1,15.1,0,0,1,9-2.8,15.35,15.35,0,0,1,9.13,2.85,26.75,26.75,0,0,1,7.4,8.84l6.09-7.15a37.13,37.13,0,0,0-8.8-2.61l5.22-17.49A46.28,46.28,0,0,1,51.8,912.68ZM15.56,947.62a3.56,3.56,0,0,0,2.8,1.2,4.54,4.54,0,0,0,2.42-.72,17,17,0,0,0,3-2.66q-2.89-5.31-5.79-5.31a3.26,3.26,0,0,0-2.52,1.06,4.32,4.32,0,0,0-1,3A5,5,0,0,0,15.56,947.62Zm37.3-9.14L42.23,950.85c1.81,2.52,4,3.77,6.48,3.77a4.92,4.92,0,0,0,4.15-2.27,10.4,10.4,0,0,0,1.65-6.23A18.92,18.92,0,0,0,52.86,938.48Z"/><path class="cls-1" d="M1.55,758.83,69.2,780.47v24.45L33.05,815.84,69.2,827.35V851.8L1.55,873.44V850L40,838.17,1.55,825.7v-21l38.94-11.79L1.55,780.47Z"/><path class="cls-1" d="M1.55,687.12H69.2v22.81H44.26V731H69.2V753.8H1.55V731h24V709.93h-24Z"/><path class="cls-1" d="M57.41,630v25.71l11.79,4.54v23.2L1.55,653.88V631.45L69.2,601.88v23.58ZM41,636.29l-17,6.57,17,6.57Z"/><path class="cls-1" d="M19.23,586.9v19.81H1.55V544.28H19.23v19.81h50V586.9Z"/><path class="cls-1" d="M1.55,399.32,69.2,421v24.45L33.05,456.34l36.15,11.5v24.45L1.55,513.94V490.46L40,478.66,1.55,466.2v-21l38.94-11.79L1.55,421Z"/><path class="cls-1" d="M52,338.05H69.2V394.3H1.55v-55h17.2v32.57h7.92V343.27H43.1v28.61H52Z"/><path class="cls-1" d="M69.2,239.86l-30.83.2,24.74,14.69V264.8L39.43,279.49H69.2v20.78H1.55V281.52l36-22L1.55,238V219.28l67.65-.19Z"/><path class="cls-1" d="M57.41,162v25.71l11.79,4.54v23.19L1.55,185.84V163.42L69.2,133.85v23.58ZM41,168.25l-17,6.57,17,6.58Z"/><path class="cls-1" d="M46.77,102.63l5.71,5.12H69.2v22.43H1.55V107.75H26.09L1.55,85.53V60.69L31.31,87.75,69.2,59.34V85.72Z"/><path class="cls-1" d="M52,0H69.2V56.25H1.55v-55h17.2V33.82h7.92V5.22H43.1v28.6H52Z"/></g></g></svg>